<mxfile host="app.diagrams.net" modified="2023-12-13T15:18:33.622Z" agent="Mozilla/5.0 (Macintosh; Intel Mac OS X 10_15_7) AppleWebKit/605.1.15 (KHTML, like Gecko) Version/16.3 Safari/605.1.15" etag="DKlObDDtiP4Jc9f5aw1d" version="22.1.8" type="github">
  <diagram name="Page-1" id="XkR47Kjn2yLEu6bw3HZA">
    <mxGraphModel dx="1990" dy="2428" grid="1" gridSize="10" guides="1" tooltips="1" connect="1" arrows="1" fold="1" page="1" pageScale="1" pageWidth="850" pageHeight="1100" math="0" shadow="0">
      <root>
        <mxCell id="0" />
        <mxCell id="1" style="" parent="0" />
        <mxCell id="53OA05vvSE1mkwLguFmQ-45" value="" style="group" parent="1" vertex="1" connectable="0">
          <mxGeometry x="150" y="100" width="290" height="360" as="geometry" />
        </mxCell>
        <mxCell id="53OA05vvSE1mkwLguFmQ-10" value="" style="whiteSpace=wrap;html=1;shadow=1;" parent="53OA05vvSE1mkwLguFmQ-45" vertex="1">
          <mxGeometry width="290" height="360" as="geometry" />
        </mxCell>
        <mxCell id="53OA05vvSE1mkwLguFmQ-17" value="&lt;b&gt;&lt;font style=&quot;font-size: 18px;&quot;&gt;Backend Service&lt;/font&gt;&lt;/b&gt;" style="rounded=0;whiteSpace=wrap;html=1;fillColor=#EBEBEB;" parent="53OA05vvSE1mkwLguFmQ-45" vertex="1">
          <mxGeometry width="290" height="60" as="geometry" />
        </mxCell>
        <mxCell id="53OA05vvSE1mkwLguFmQ-21" value="Kafka" style="sketch=0;points=[[0,0,0],[0.25,0,0],[0.5,0,0],[0.75,0,0],[1,0,0],[0,1,0],[0.25,1,0],[0.5,1,0],[0.75,1,0],[1,1,0],[0,0.25,0],[0,0.5,0],[0,0.75,0],[1,0.25,0],[1,0.5,0],[1,0.75,0]];outlineConnect=0;fontColor=#232F3E;fillColor=#8C4FFF;strokeColor=#ffffff;dashed=0;verticalLabelPosition=bottom;verticalAlign=top;align=center;html=1;fontSize=12;fontStyle=0;aspect=fixed;shape=mxgraph.aws4.resourceIcon;resIcon=mxgraph.aws4.managed_streaming_for_kafka;" parent="53OA05vvSE1mkwLguFmQ-45" vertex="1">
          <mxGeometry x="210" y="85" width="60" height="60" as="geometry" />
        </mxCell>
        <mxCell id="53OA05vvSE1mkwLguFmQ-61" value="Python&lt;br&gt;" style="shape=image;html=1;verticalAlign=top;verticalLabelPosition=bottom;labelBackgroundColor=#ffffff;imageAspect=0;aspect=fixed;image=https://cdn2.iconfinder.com/data/icons/boxicons-logos/24/bxl-python-128.png" parent="53OA05vvSE1mkwLguFmQ-45" vertex="1">
          <mxGeometry x="30" y="90" width="60" height="60" as="geometry" />
        </mxCell>
        <mxCell id="53OA05vvSE1mkwLguFmQ-62" value="Django" style="shape=image;html=1;verticalAlign=top;verticalLabelPosition=bottom;labelBackgroundColor=#ffffff;imageAspect=0;aspect=fixed;image=https://cdn2.iconfinder.com/data/icons/boxicons-logos/24/bxl-django-128.png" parent="53OA05vvSE1mkwLguFmQ-45" vertex="1">
          <mxGeometry x="115" y="80" width="60" height="60" as="geometry" />
        </mxCell>
        <mxCell id="fJgu6aHgxFHwW13sNsPK-2" value="" style="image;sketch=0;aspect=fixed;html=1;points=[];align=center;fontSize=12;image=img/lib/mscae/Docker.svg;" parent="53OA05vvSE1mkwLguFmQ-45" vertex="1">
          <mxGeometry x="30" y="210" width="73.17" height="60" as="geometry" />
        </mxCell>
        <mxCell id="53OA05vvSE1mkwLguFmQ-22" value="" style="whiteSpace=wrap;html=1;shadow=1;" parent="1" vertex="1">
          <mxGeometry x="680" y="-70" width="200" height="170" as="geometry" />
        </mxCell>
        <mxCell id="53OA05vvSE1mkwLguFmQ-23" value="&lt;b&gt;&lt;font style=&quot;font-size: 18px;&quot;&gt;Frontend&lt;/font&gt;&lt;/b&gt;" style="rounded=0;whiteSpace=wrap;html=1;fillColor=#EBEBEB;" parent="1" vertex="1">
          <mxGeometry x="680" y="-70" width="200" height="49.99999999999999" as="geometry" />
        </mxCell>
        <mxCell id="53OA05vvSE1mkwLguFmQ-27" value="" style="shape=image;verticalLabelPosition=bottom;labelBackgroundColor=default;verticalAlign=top;aspect=fixed;imageAspect=0;image=data:image/png,iVBORw0KGgoAAAANSUhEUgAAAPEAAADRCAMAAAAquaQNAAAAWlBMVEX///9h2vtR1/ta2ftp3Pvy/P/6/v/p+f7F8P3t+v77/v+97v194PzB7/3g9/7S8/617P2h5/yI4vzZ9f6s6v2S5Py27P2b5vyk6PzN8v5y3fuA4PyL4vyV5fy3bU5tAAAO0UlEQVR4nOVdaZuiMAwWCgKKoCIe6Pz/v7mCSpM2PTlmXN4P++zMYG3aNFeTsFoNRnGuo+CN+2FXDB8RINkd7p/Bo/o87uBeiK8sZCzowVgY1ulmnMHTOhQHZ9dsnLE9EdchmBCY2KMcPHb5QNT2g4d1PMLMPbGn6H3PK9ivB4y82QeasfejUeCGdR4q5vSe2NV3M+KrktwOYT5kNb2RBdpZdTQffGa2PujpbUcOfuE0Z6ZZvWg+OQ98MtLbjTw7ybHNtLrduDmNezNyzmfgueVXZDmx9tDZb0emFw2I4mhC6gj8IIJbJRy2/zBan9iyNin72WvgMBSUFfuZlEIBFdwKFubborM5snJ/p5QoaxKLQZOG+CQL7/uyY5JNsc3RioTVpDRiwEmFd0xOSVklFip0LzP009rAlkxyRw+NSpMWZ0BSuJP/voskosNcL2li6QSzsKGGBo+x80j0mAEJplmrykWaGdMZnqV4Fp5HRTEyJHkEWqyw5bMLlbqnkDYtvCpHvErPKuh94safZduBlNgi4l950DxWihqM5bRPtcnFByMdPxz40zNpqAJsiP7Js8DaLKBkdiIYHUZPAbDCPP7ypZ8gSw2PxkeBXYlTcBMfOZqsqZRPQMdj4wHsiPnhmyCSJGvkhAlmzMIqBY97UeAIztTMxk9dC9sc1ujPtfDXo423te9XcRa2Bl9nZ8xvhV3Mwd8EmRXaCd+YL/ocKvnIqKnrkGGhzaLPPq7FP9j6HP1CsaMHBa7gYsM++IJ59+PPCzEFgd914Hw2w0HO+sm7nCGRs1stlXhxdAdueIXTRwZKfoxdPlZgmf1crQLvO3OSQfwgDw+amsC9iMbpczH2BdkW/9i4hTSa/oPTi67exmP2x+6FI6YR/eAqgOp+FtPbIFxUOwftDqqQTug87dOMwprzk8nElHGmSQ7dOTP1PFs+4HrBQ2akFMmh+9IB+Tm9evJSTj1KmeTQR9pyQe+kMbwwUBMWku/vZRln81HMTVpLq1pEIlBsE+XUTmPqK6jBX7WOEMGR5yhDF94eQyneCKEgFnndrn8RxVIUnnmpl++h+CgS7GlD/A7FHl91kQl+knyZexpOWA/RTsRFSzeSe5YD0E4jZdmowb/KWa+gqCW6M3O7Y34i+RULxNV0QMZHiK4hBow1PcV8kxytQ5RVEG5xWMT1xp/b1dNfMHr7TlAvdVFrGKl21VFz+k7cP3aTN1Avva/3YaKBo47az+gfX/yiD2hD7+9f3sVttwaPxHioNkf4RR9KmoMRp7vIhQGRGGfsfE5QppBSWJo5KHguTYg8gpHBQ8UO0QfoPiBNhDSWw20wDyFPn/6Sedh3D0gwtjagVcIetgPGQyw/Z/Avs11eGNDT3qZaX0tUMxog0ASxPEKFfhsfKo7XgIf358iLODqqpw04qWRqIYoR2PkFXDlZH4QB4OrJ7jYVKl0yYxZm8faqWo98RuWEsjBsHkeHmFa5UFnbRevtM1HGQOEkJxN4iFUbcnI8ytkAl9UHXCE7JanoOBZyvlU6TU+xw7z9we0d8yGqISlFUVXlLd3ttk+c2392u/RWVlVRwIUx31leZ/ScWlxsRdc6w6kBrxxpCe1v4WPhNjMEDfMZ/YgWO5Poyqr0dDk2QWhV8SCjzSBv7pdTWikEBT9X01vVLQpl4Ceudtdj9Mql9yMWkP3KnY+O161IeDGz4IJL3FuFcbW95KqygaGUt1t+OVe9Gb+dWXABydpZPHF5OgZiEcPoaOkOjqeyJbu3Sy3tleEA6nNbBxPsq5psFgaPLf95DourBUhjn41YSHb/3/lqQ6yLkibGTMc4TutB0xS08aCxHrvJK9uSfeMuo15WRve5qGny+/HxqFs8Hsd73jTRu0TMQyA8P9fsJ9RQyUmu6rGZ1jYtiyRe61zfzTpOivK28xk+jE6TEB2fGxty3+oT/MbpGg1dxjW2Cr7d6bHZ+3Y31wS3Vf5NfUqLGPjQrpcG4Ori6fvGRXqqG2ZBNwvvzheUaiRXwze2+9rU7/rCFQw1Pv/mlkqwhq7yZ9+ycv8TmYyc5xyv43B3adjeJ7GXd6XmB2CjnK+GYQEXYo9NsTs0oaGQ/z48+ZgoQcSICmkTS9WkrQCXS5r/poioSQCao2Hu1Nlc8U3E6fV/NQEeCTkeEhutHzYg5fqsOjgM7LtcO3gFm+Sz4KD8lEmljiARnam4z5fmVLG/T2P+WoE4vRgIAbE862oZDFASJDnA4G+r6qpqGsIC96WuGpJ9nprvpe55uaTIuHC+fpdCmXrNQKVTdz+gNIrCxs3LiB8UvdC6qYiwQAcoa32duZNS1oNgwIciFdHhw0GGbIkhnuruAIM8PNiFtwF+xo9e3SDcmIMxtuJAGQzM+uJOLnCnTBqefod4F4otf++1Uggvzu9iFPMmFbUH5lL+z2fl5Xpur2TNALYGKTDwCA65BHvQwmAvMzX/6gMxcRsD6CJtMAtIYc8fABeG0HwYYtvHtBEDzA/qU1tZvYSmiPZaygYOI8VlFudfHsSF3DispdSeOh2gEFjRkyCNpJYTjdawFwvcA6aiF319v47AS9ReZSdlmqal1u4H29lftVyIRRaRSt0LdIUJYtkG0zZjAA0U3r8B1pI6Vyk5Ne/LmKcPclLOHBjnveXGadGt51Y8z+rlqTDBTNPOogUoib2JM1J6ECmOKzwtGhUTQU/59Rt+pWg4MmJDM5XWEHY4zA3eJlAVL5V8MlpblXTMWkFBzyeTTBluzZmkYiIoWHqXE/SQjfrOsUpe6zyADj+KjHK6CxNU7esVscI6CEYUdUG1RpNgjYVJDPIj2k0AJQGMiuLFyp5eLKL2bAPGu6AVsMmFEKp/A1liox4GlsWi4COYCyn+yDRBG0amxGzxKQGPW80OlcLKbHFCBFvmkxyg7HroJamhTR2ZUg60wQPKLcusX1QXKro16BBbF7gn4GRlBs1kaFNHZnpBDZUBqWEbwCvQNuJPQaZn9hFB4MrA/xJP1nqCFekfYFrwv9bzg80Z8LRQPqhDCDSl6KBUAVGFK32M4AypkrWboEMOFyQZeRXApHMrSyEoJo0PI70tiM8RNXBuNdZwzcDBgefFrcnXVZ4Rdcqs7pOoNJZE3mSVE6HAlpQvPIHM1anNpBmR51EfZP6AEl7y+XcNnnE24UkU0Bl1Lb+8izOiJlSZT3H3UeJASUvqnPsB7nV64xTYTs5OrSiSyJwygvcpkPz6I3zWPZYEPJ6PzOODktahHgLDkja+HVMrLJfQ/Iwe3Frt26j2E/JJ+sNCiTSH1nZMrShpxhW8Pll6fEc/yzWsLRD2UagtJrUqSTGlGfEm+7T/kJov+VS3AECLnGaSm90xDhTpy3CTvYL+UuUMCFh5DIf2gF6yrTXFpDFg/gITxETSgRQDp0kR6xlIMdSofjFwMSC4vD1e3jlenqweVR9TI/w9fbw8m+u77Grnk0fY1ZP7TpYHeT7fCfrHjvlXX+ofLzAGguJcTv7nn49zwWAE5CEYy3SpISL37k/FMiFhyL5ZXLwanxfrAK7qToIyFn3uJADr+d1JIKqETy3u3mmBd4tfcH98km0nDTLj/fHycgQG5YG8jJlvywOZJ9fn9pdyfRaYz0Xl7AUT5ezd0ttEOXsyCdrvWVxe5kqRe0spG3I7vy/3drXA/Orn+t5lFcLC/P/NoV+1Mlf+9B+pk+BfC36rqJNweY1bXFPW0X9cC7PS1DtF/2e9UwtNTduh/BM1beVBXdPm17draXWLLb6yNpUu3bHG0uqPu/n/nRrzyxw15i0ymz4C0bR9BGqrPgIjNkhdWK+IDv79QFwUBQo//mo/kA6durfNcADz+dKeL2+i9/mS+vq88Jd6N9Xp5L2bXrDN65gac7XZW2APtuX12ZN6KT7+916KRDCg7ZdprT4dSX31y9z+Yr/Mv9QTdZ43t5v73hb/Wd/b5fU2Xl7/as5TC+lRPnUfegsz2e/N4t5Y3rsGlvc+ieW9M4RPfynvheFSw9ZzgVr5C9/9s7z3O033Di/ykCuguTkfHct7T9sI7+Lje/kV7+Jb3vsWl/dOzeW9N5VPcinvxvV3W3AOP8r3/tPvP+ZftZB3XC/vPebLe1c9+CrXos4WRI2al35Zfw3FKymb2VUvvfBFFG+EghgWeZ3DL6J4tcbpSZHnKL9Csd9XJQJX+93wD154Bwz0xaVWXX4ObvYrFohPqJioynVvDLCa1+bioWKPmaaUCeKU/vQGt6v9OvO4wNt3Wo1pc83pOw2IPhxogu0KVjD8IjF+4NEH8x0gBra38A+u8679IjFeOHvyk9BdmeGGTqxx03X8bA1LpraB3BbICgVOk2AFbsMbMOv2wh2GNV9yg99NppAs0DVnSPAiuHQiqQZaBW7gesFexOJiIha8WDjGhzm0Fwz7GZUTFNa2lS4Z9h5Yb0uvxT/Ympz5jKIa1Q7aSRvM0XihcuxJWXI2qHqaXnChklgbtl4LVZAC7wrFc+HRxjEAiz5LQhfYFvPDYqWr9ja1XUW3dJo5jjHqe2IyNOOjYGYRUcub+MjRdFhAJsr09kcLGHfWP7kXkvboAnexlJ+Z7GywOvNkKcKWCbo1LqW38OR0hGeTiw8GOruC89gsOREtYPcZ5amrpHefaZptnKRnc2WgAJaAubVPGwB4Z0bPrJJKvpnWHizFXF2mohkGUeaRWy3OkGTikp4odgxzvdpZSyxBlyDuIMFzKOM3EC13LI7KWk4yZhapeKKY6z5WY8ZIsHIflSY9UHzuyYDvSs2s3N+p8gHW2JiPiRS974oF7u96yE2xxUdltrqQDj+Cq9dlTiuKBozapgexzZ+yARaKpRgz5Vb3MDSRg1uR2zt0GfFySwVccqFGgaGJHJ9Y4HY3fDNXtb8HnqmajSOzmRlzy+DpcLKqriCzeCdGZtwNFh58rkjWB3Otc/ALBFMqVKD36st4sdhSTIBJuU8HUra+yQ32Q9IVNntVqw8X2T8BYsLa6JTVY3iIsbVkSF1Xzy6zEOIrQxNrmwnUt5GyUdJaHtz7qIyI4lz3/uP9sBu35DvZHe6fwaP6PII//A/ZZr1g8AteZgAAAABJRU5ErkJggg==;" parent="1" vertex="1">
          <mxGeometry x="745.4" y="-10" width="69.19" height="60" as="geometry" />
        </mxCell>
        <mxCell id="53OA05vvSE1mkwLguFmQ-80" style="edgeStyle=orthogonalEdgeStyle;rounded=0;orthogonalLoop=1;jettySize=auto;html=1;entryX=1;entryY=0.5;entryDx=0;entryDy=0;" parent="1" source="53OA05vvSE1mkwLguFmQ-22" target="53OA05vvSE1mkwLguFmQ-10" edge="1">
          <mxGeometry relative="1" as="geometry" />
        </mxCell>
        <mxCell id="53OA05vvSE1mkwLguFmQ-28" value="React" style="text;html=1;align=center;verticalAlign=middle;resizable=0;points=[];autosize=1;strokeColor=none;fillColor=none;fontSize=22;" parent="1" vertex="1">
          <mxGeometry x="740" y="60" width="80" height="40" as="geometry" />
        </mxCell>
        <mxCell id="53OA05vvSE1mkwLguFmQ-34" value="" style="group" parent="1" vertex="1" connectable="0">
          <mxGeometry x="470" y="600" width="200" height="350" as="geometry" />
        </mxCell>
        <mxCell id="53OA05vvSE1mkwLguFmQ-31" value="" style="whiteSpace=wrap;html=1;shadow=1;" parent="53OA05vvSE1mkwLguFmQ-34" vertex="1">
          <mxGeometry width="200" height="290" as="geometry" />
        </mxCell>
        <mxCell id="53OA05vvSE1mkwLguFmQ-32" value="&lt;b&gt;&lt;font style=&quot;font-size: 18px;&quot;&gt;Workers&lt;/font&gt;&lt;/b&gt;" style="rounded=0;whiteSpace=wrap;html=1;fillColor=#EBEBEB;" parent="53OA05vvSE1mkwLguFmQ-34" vertex="1">
          <mxGeometry width="200" height="49.99999999999999" as="geometry" />
        </mxCell>
        <mxCell id="53OA05vvSE1mkwLguFmQ-33" value="Analyzer" style="sketch=0;outlineConnect=0;fontColor=#232F3E;gradientColor=none;fillColor=#ED7100;strokeColor=none;dashed=0;verticalLabelPosition=bottom;verticalAlign=top;align=center;html=1;fontSize=12;fontStyle=0;aspect=fixed;pointerEvents=1;shape=mxgraph.aws4.instance2;" parent="53OA05vvSE1mkwLguFmQ-34" vertex="1">
          <mxGeometry x="20" y="70" width="56" height="56" as="geometry" />
        </mxCell>
        <mxCell id="53OA05vvSE1mkwLguFmQ-35" value="Trainer" style="sketch=0;outlineConnect=0;fontColor=#232F3E;gradientColor=none;fillColor=#ED7100;strokeColor=none;dashed=0;verticalLabelPosition=bottom;verticalAlign=top;align=center;html=1;fontSize=12;fontStyle=0;aspect=fixed;pointerEvents=1;shape=mxgraph.aws4.instance2;" parent="53OA05vvSE1mkwLguFmQ-34" vertex="1">
          <mxGeometry x="120" y="70" width="56" height="56" as="geometry" />
        </mxCell>
        <mxCell id="53OA05vvSE1mkwLguFmQ-36" value="Deployer" style="sketch=0;outlineConnect=0;fontColor=#232F3E;gradientColor=none;fillColor=#ED7100;strokeColor=none;dashed=0;verticalLabelPosition=bottom;verticalAlign=top;align=center;html=1;fontSize=12;fontStyle=0;aspect=fixed;pointerEvents=1;shape=mxgraph.aws4.instance2;" parent="53OA05vvSE1mkwLguFmQ-34" vertex="1">
          <mxGeometry x="22" y="180" width="56" height="56" as="geometry" />
        </mxCell>
        <mxCell id="53OA05vvSE1mkwLguFmQ-37" value="RunPipeline" style="sketch=0;outlineConnect=0;fontColor=#232F3E;gradientColor=none;fillColor=#ED7100;strokeColor=none;dashed=0;verticalLabelPosition=bottom;verticalAlign=top;align=center;html=1;fontSize=12;fontStyle=0;aspect=fixed;pointerEvents=1;shape=mxgraph.aws4.instance2;" parent="53OA05vvSE1mkwLguFmQ-34" vertex="1">
          <mxGeometry x="122" y="180" width="56" height="56" as="geometry" />
        </mxCell>
        <mxCell id="zuOpw0ZFS3uDNEdH8G6p-23" value="&lt;font style=&quot;font-size: 16px;&quot;&gt;Openshift&lt;/font&gt;" style="image;sketch=0;aspect=fixed;html=1;points=[];align=center;fontSize=12;image=img/lib/mscae/OpenShift.svg;" vertex="1" parent="53OA05vvSE1mkwLguFmQ-34">
          <mxGeometry x="70" y="304" width="50" height="46" as="geometry" />
        </mxCell>
        <mxCell id="53OA05vvSE1mkwLguFmQ-47" value="" style="group" parent="1" vertex="1" connectable="0">
          <mxGeometry x="1187.69" y="740" width="200" height="350" as="geometry" />
        </mxCell>
        <mxCell id="53OA05vvSE1mkwLguFmQ-48" value="" style="whiteSpace=wrap;html=1;shadow=1;" parent="53OA05vvSE1mkwLguFmQ-47" vertex="1">
          <mxGeometry width="200" height="310" as="geometry" />
        </mxCell>
        <mxCell id="53OA05vvSE1mkwLguFmQ-49" value="&lt;b&gt;&lt;font style=&quot;font-size: 18px;&quot;&gt;Monitoring&lt;/font&gt;&lt;/b&gt;" style="rounded=0;whiteSpace=wrap;html=1;fillColor=#EBEBEB;" parent="53OA05vvSE1mkwLguFmQ-47" vertex="1">
          <mxGeometry width="200" height="50" as="geometry" />
        </mxCell>
        <mxCell id="53OA05vvSE1mkwLguFmQ-55" value="Prometheus" style="sketch=0;points=[[0,0,0],[0.25,0,0],[0.5,0,0],[0.75,0,0],[1,0,0],[0,1,0],[0.25,1,0],[0.5,1,0],[0.75,1,0],[1,1,0],[0,0.25,0],[0,0.5,0],[0,0.75,0],[1,0.25,0],[1,0.5,0],[1,0.75,0]];points=[[0,0,0],[0.25,0,0],[0.5,0,0],[0.75,0,0],[1,0,0],[0,1,0],[0.25,1,0],[0.5,1,0],[0.75,1,0],[1,1,0],[0,0.25,0],[0,0.5,0],[0,0.75,0],[1,0.25,0],[1,0.5,0],[1,0.75,0]];outlineConnect=0;fontColor=#232F3E;fillColor=#E7157B;strokeColor=#ffffff;dashed=0;verticalLabelPosition=bottom;verticalAlign=top;align=center;html=1;fontSize=12;fontStyle=0;aspect=fixed;shape=mxgraph.aws4.resourceIcon;resIcon=mxgraph.aws4.managed_service_for_prometheus;" parent="53OA05vvSE1mkwLguFmQ-47" vertex="1">
          <mxGeometry x="120" y="69.60000000000002" width="60" height="60" as="geometry" />
        </mxCell>
        <mxCell id="53OA05vvSE1mkwLguFmQ-58" value="Grafana" style="image;aspect=fixed;html=1;points=[];align=center;fontSize=12;image=img/lib/azure2/other/Grafana.svg;" parent="53OA05vvSE1mkwLguFmQ-47" vertex="1">
          <mxGeometry x="11.370000000000005" y="69.60000000000002" width="77.27" height="60" as="geometry" />
        </mxCell>
        <mxCell id="53OA05vvSE1mkwLguFmQ-60" value="Loki Logging" style="outlineConnect=0;dashed=0;verticalLabelPosition=bottom;verticalAlign=top;align=center;html=1;shape=mxgraph.aws3.flow_logs;fillColor=#F58536;gradientColor=none;" parent="53OA05vvSE1mkwLguFmQ-47" vertex="1">
          <mxGeometry x="65.5" y="180" width="60" height="60" as="geometry" />
        </mxCell>
        <mxCell id="53OA05vvSE1mkwLguFmQ-56" value="" style="shape=image;html=1;verticalAlign=top;verticalLabelPosition=bottom;labelBackgroundColor=#ffffff;imageAspect=0;aspect=fixed;image=https://cdn2.iconfinder.com/data/icons/whcompare-isometric-web-hosting-servers/50/browser-window-with-stats-128.png" parent="1" vertex="1">
          <mxGeometry x="1227.69" y="600" width="128" height="128" as="geometry" />
        </mxCell>
        <mxCell id="53OA05vvSE1mkwLguFmQ-57" value="" style="image;aspect=fixed;perimeter=ellipsePerimeter;html=1;align=center;shadow=0;dashed=0;fontColor=#4277BB;labelBackgroundColor=default;fontSize=12;spacingTop=3;image=img/lib/ibm/infrastructure/mobile_backend.svg;" parent="1" vertex="1">
          <mxGeometry x="253.03" width="90" height="90" as="geometry" />
        </mxCell>
        <mxCell id="53OA05vvSE1mkwLguFmQ-63" value="" style="whiteSpace=wrap;html=1;shadow=1;" parent="1" vertex="1">
          <mxGeometry x="1227.69" y="100" width="200" height="295" as="geometry" />
        </mxCell>
        <mxCell id="53OA05vvSE1mkwLguFmQ-64" value="&lt;b&gt;&lt;font style=&quot;font-size: 18px;&quot;&gt;Storage&lt;/font&gt;&lt;/b&gt;" style="rounded=0;whiteSpace=wrap;html=1;fillColor=#EBEBEB;" parent="1" vertex="1">
          <mxGeometry x="1227.69" y="100" width="200" height="49.99999999999999" as="geometry" />
        </mxCell>
        <mxCell id="53OA05vvSE1mkwLguFmQ-65" value="PostgreSQL" style="image;aspect=fixed;html=1;points=[];align=center;fontSize=12;image=img/lib/azure2/databases/Azure_Database_PostgreSQL_Server.svg;" parent="1" vertex="1">
          <mxGeometry x="1357.69" y="172" width="48" height="64" as="geometry" />
        </mxCell>
        <mxCell id="53OA05vvSE1mkwLguFmQ-66" value="Redis" style="image;sketch=0;aspect=fixed;html=1;points=[];align=center;fontSize=12;image=img/lib/mscae/Cache_Redis_Product.svg;" parent="1" vertex="1">
          <mxGeometry x="1257.69" y="183" width="50" height="42" as="geometry" />
        </mxCell>
        <mxCell id="53OA05vvSE1mkwLguFmQ-67" value="OBJECT STORAGE" style="sketch=0;outlineConnect=0;fontColor=#232F3E;gradientColor=none;fillColor=#7AA116;strokeColor=none;dashed=0;verticalLabelPosition=bottom;verticalAlign=top;align=center;html=1;fontSize=12;fontStyle=0;aspect=fixed;pointerEvents=1;shape=mxgraph.aws4.bucket_with_objects;" parent="1" vertex="1">
          <mxGeometry x="1267.69" y="275" width="57.69" height="60" as="geometry" />
        </mxCell>
        <mxCell id="53OA05vvSE1mkwLguFmQ-68" value="" style="group" parent="1" vertex="1" connectable="0">
          <mxGeometry x="680" y="230" width="200" height="350" as="geometry" />
        </mxCell>
        <mxCell id="53OA05vvSE1mkwLguFmQ-69" value="" style="whiteSpace=wrap;html=1;shadow=1;" parent="53OA05vvSE1mkwLguFmQ-68" vertex="1">
          <mxGeometry x="-30" width="200" height="290" as="geometry" />
        </mxCell>
        <mxCell id="53OA05vvSE1mkwLguFmQ-70" value="&lt;font size=&quot;4&quot;&gt;&lt;b&gt;Master&lt;/b&gt;&lt;/font&gt;" style="rounded=0;whiteSpace=wrap;html=1;fillColor=#EBEBEB;" parent="53OA05vvSE1mkwLguFmQ-68" vertex="1">
          <mxGeometry x="-30" width="200" height="49.99999999999999" as="geometry" />
        </mxCell>
        <mxCell id="53OA05vvSE1mkwLguFmQ-81" value="Kafka" style="sketch=0;points=[[0,0,0],[0.25,0,0],[0.5,0,0],[0.75,0,0],[1,0,0],[0,1,0],[0.25,1,0],[0.5,1,0],[0.75,1,0],[1,1,0],[0,0.25,0],[0,0.5,0],[0,0.75,0],[1,0.25,0],[1,0.5,0],[1,0.75,0]];outlineConnect=0;fontColor=#232F3E;fillColor=#8C4FFF;strokeColor=#ffffff;dashed=0;verticalLabelPosition=bottom;verticalAlign=top;align=center;html=1;fontSize=12;fontStyle=0;aspect=fixed;shape=mxgraph.aws4.resourceIcon;resIcon=mxgraph.aws4.managed_streaming_for_kafka;" parent="53OA05vvSE1mkwLguFmQ-68" vertex="1">
          <mxGeometry x="-10" y="180" width="60" height="60" as="geometry" />
        </mxCell>
        <mxCell id="53OA05vvSE1mkwLguFmQ-82" value="Python&lt;br&gt;" style="shape=image;html=1;verticalAlign=top;verticalLabelPosition=bottom;labelBackgroundColor=#ffffff;imageAspect=0;aspect=fixed;image=https://cdn2.iconfinder.com/data/icons/boxicons-logos/24/bxl-python-128.png" parent="53OA05vvSE1mkwLguFmQ-68" vertex="1">
          <mxGeometry x="90" y="180" width="60" height="60" as="geometry" />
        </mxCell>
        <mxCell id="53OA05vvSE1mkwLguFmQ-83" value="Kubernetes" style="image;sketch=0;aspect=fixed;html=1;points=[];align=center;fontSize=12;image=img/lib/mscae/Kubernetes.svg;" parent="53OA05vvSE1mkwLguFmQ-68" vertex="1">
          <mxGeometry x="88.75" y="70" width="62.5" height="60" as="geometry" />
        </mxCell>
        <mxCell id="53OA05vvSE1mkwLguFmQ-84" value="FastApi" style="sketch=0;html=1;dashed=0;whitespace=wrap;fillColor=#2875E2;strokeColor=#ffffff;points=[[0.005,0.63,0],[0.1,0.2,0],[0.9,0.2,0],[0.5,0,0],[0.995,0.63,0],[0.72,0.99,0],[0.5,1,0],[0.28,0.99,0]];verticalLabelPosition=bottom;align=center;verticalAlign=top;shape=mxgraph.kubernetes.icon;prIcon=api" parent="53OA05vvSE1mkwLguFmQ-68" vertex="1">
          <mxGeometry x="-10" y="70" width="60" height="60" as="geometry" />
        </mxCell>
        <mxCell id="53OA05vvSE1mkwLguFmQ-76" style="edgeStyle=orthogonalEdgeStyle;rounded=0;orthogonalLoop=1;jettySize=auto;html=1;exitX=1;exitY=0.5;exitDx=0;exitDy=0;entryX=0;entryY=0.25;entryDx=0;entryDy=0;" parent="1" source="53OA05vvSE1mkwLguFmQ-10" target="53OA05vvSE1mkwLguFmQ-69" edge="1">
          <mxGeometry relative="1" as="geometry" />
        </mxCell>
        <mxCell id="53OA05vvSE1mkwLguFmQ-77" style="edgeStyle=orthogonalEdgeStyle;rounded=0;orthogonalLoop=1;jettySize=auto;html=1;exitX=0.5;exitY=1;exitDx=0;exitDy=0;" parent="1" source="53OA05vvSE1mkwLguFmQ-69" target="53OA05vvSE1mkwLguFmQ-32" edge="1">
          <mxGeometry relative="1" as="geometry" />
        </mxCell>
        <mxCell id="53OA05vvSE1mkwLguFmQ-78" style="edgeStyle=orthogonalEdgeStyle;rounded=0;orthogonalLoop=1;jettySize=auto;html=1;exitX=1;exitY=0.5;exitDx=0;exitDy=0;" parent="1" source="53OA05vvSE1mkwLguFmQ-69" target="53OA05vvSE1mkwLguFmQ-63" edge="1">
          <mxGeometry relative="1" as="geometry">
            <Array as="points">
              <mxPoint x="1039" y="375" />
              <mxPoint x="1039" y="320" />
            </Array>
          </mxGeometry>
        </mxCell>
        <mxCell id="53OA05vvSE1mkwLguFmQ-86" value="" style="group" parent="1" vertex="1" connectable="0">
          <mxGeometry x="870" y="730" width="200" height="420" as="geometry" />
        </mxCell>
        <mxCell id="53OA05vvSE1mkwLguFmQ-87" value="" style="whiteSpace=wrap;html=1;shadow=1;" parent="53OA05vvSE1mkwLguFmQ-86" vertex="1">
          <mxGeometry x="50" y="10" width="200" height="310" as="geometry" />
        </mxCell>
        <mxCell id="53OA05vvSE1mkwLguFmQ-88" value="&lt;b&gt;&lt;font style=&quot;font-size: 18px;&quot;&gt;Test&lt;/font&gt;&lt;/b&gt;" style="rounded=0;whiteSpace=wrap;html=1;fillColor=#EBEBEB;" parent="53OA05vvSE1mkwLguFmQ-86" vertex="1">
          <mxGeometry x="50" y="10" width="200" height="49.99999999999999" as="geometry" />
        </mxCell>
        <mxCell id="53OA05vvSE1mkwLguFmQ-93" value="Experiments" style="outlineConnect=0;dashed=0;verticalLabelPosition=bottom;verticalAlign=top;align=center;html=1;shape=mxgraph.aws3.instances;fillColor=#F58534;gradientColor=none;" parent="53OA05vvSE1mkwLguFmQ-86" vertex="1">
          <mxGeometry x="70" y="70" width="60" height="63" as="geometry" />
        </mxCell>
        <mxCell id="53OA05vvSE1mkwLguFmQ-94" value="Data Analysis" style="outlineConnect=0;dashed=0;verticalLabelPosition=bottom;verticalAlign=top;align=center;html=1;shape=mxgraph.aws3.instances;fillColor=#F58534;gradientColor=none;" parent="53OA05vvSE1mkwLguFmQ-86" vertex="1">
          <mxGeometry x="170" y="80" width="60" height="63" as="geometry" />
        </mxCell>
        <mxCell id="53OA05vvSE1mkwLguFmQ-95" value="Run Pipeline" style="outlineConnect=0;dashed=0;verticalLabelPosition=bottom;verticalAlign=top;align=center;html=1;shape=mxgraph.aws3.instances;fillColor=#F58534;gradientColor=none;" parent="53OA05vvSE1mkwLguFmQ-86" vertex="1">
          <mxGeometry x="70" y="190" width="60" height="63" as="geometry" />
        </mxCell>
        <mxCell id="53OA05vvSE1mkwLguFmQ-97" value="Apache Airflow" style="sketch=0;points=[[0,0,0],[0.25,0,0],[0.5,0,0],[0.75,0,0],[1,0,0],[0,1,0],[0.25,1,0],[0.5,1,0],[0.75,1,0],[1,1,0],[0,0.25,0],[0,0.5,0],[0,0.75,0],[1,0.25,0],[1,0.5,0],[1,0.75,0]];outlineConnect=0;fontColor=#232F3E;fillColor=#E7157B;strokeColor=#ffffff;dashed=0;verticalLabelPosition=bottom;verticalAlign=top;align=center;html=1;fontSize=12;fontStyle=0;aspect=fixed;shape=mxgraph.aws4.resourceIcon;resIcon=mxgraph.aws4.managed_workflows_for_apache_airflow;" parent="1" vertex="1">
          <mxGeometry x="980" y="632" width="78" height="78" as="geometry" />
        </mxCell>
        <mxCell id="53OA05vvSE1mkwLguFmQ-98" value="Turkcell Automl" style="sketch=0;points=[[0,0,0],[0.25,0,0],[0.5,0,0],[0.75,0,0],[1,0,0],[0,1,0],[0.25,1,0],[0.5,1,0],[0.75,1,0],[1,1,0],[0,0.25,0],[0,0.5,0],[0,0.75,0],[1,0.25,0],[1,0.5,0],[1,0.75,0]];outlineConnect=0;fontColor=#232F3E;fillColor=#01A88D;strokeColor=#ffffff;dashed=0;verticalLabelPosition=bottom;verticalAlign=top;align=center;html=1;fontSize=12;fontStyle=0;aspect=fixed;shape=mxgraph.aws4.resourceIcon;resIcon=mxgraph.aws4.augmented_ai;" parent="1" vertex="1">
          <mxGeometry x="980" y="155" width="103" height="103" as="geometry" />
        </mxCell>
        <mxCell id="53OA05vvSE1mkwLguFmQ-100" style="edgeStyle=orthogonalEdgeStyle;rounded=0;orthogonalLoop=1;jettySize=auto;html=1;exitX=1;exitY=0.5;exitDx=0;exitDy=0;entryX=0;entryY=0.5;entryDx=0;entryDy=0;entryPerimeter=0;" parent="1" source="53OA05vvSE1mkwLguFmQ-70" target="53OA05vvSE1mkwLguFmQ-98" edge="1">
          <mxGeometry relative="1" as="geometry" />
        </mxCell>
        <mxCell id="fJgu6aHgxFHwW13sNsPK-11" value="" style="html=1;shadow=0;dashed=0;shape=mxgraph.bootstrap.rrect;rSize=5;strokeColor=#DFDFDF;html=1;whiteSpace=wrap;fillColor=#FFFFFF;fontColor=#000000;fontSize=15;" parent="1" vertex="1">
          <mxGeometry y="1250" width="200" height="190" as="geometry" />
        </mxCell>
        <mxCell id="fJgu6aHgxFHwW13sNsPK-12" value="Backend" style="html=1;shadow=0;dashed=0;shape=mxgraph.bootstrap.topButton;rSize=5;strokeColor=none;fillColor=#0085FC;fontColor=#ffffff;perimeter=none;whiteSpace=wrap;resizeWidth=1;align=left;spacing=10;fontSize=15;" parent="fJgu6aHgxFHwW13sNsPK-11" vertex="1">
          <mxGeometry width="200" height="30" relative="1" as="geometry" />
        </mxCell>
        <mxCell id="fJgu6aHgxFHwW13sNsPK-13" value="Dockerize şekilde cloud ortamda çalışıyor" style="strokeColor=inherit;fillColor=inherit;gradientColor=inherit;fontColor=inherit;html=1;shadow=0;dashed=0;perimeter=none;whiteSpace=wrap;resizeWidth=1;align=left;spacing=10;fontSize=15;" parent="fJgu6aHgxFHwW13sNsPK-11" vertex="1">
          <mxGeometry width="200" height="60" relative="1" as="geometry">
            <mxPoint y="30" as="offset" />
          </mxGeometry>
        </mxCell>
        <mxCell id="fJgu6aHgxFHwW13sNsPK-14" value="Kafka ille master ile mesajlaşıyor." style="strokeColor=inherit;fillColor=inherit;gradientColor=inherit;fontColor=inherit;html=1;shadow=0;dashed=0;perimeter=none;whiteSpace=wrap;resizeWidth=1;align=left;spacing=10;fontSize=15;" parent="fJgu6aHgxFHwW13sNsPK-11" vertex="1">
          <mxGeometry width="200" height="50" relative="1" as="geometry">
            <mxPoint y="90" as="offset" />
          </mxGeometry>
        </mxCell>
        <mxCell id="fJgu6aHgxFHwW13sNsPK-15" value="Django rest framework yapısını kullanıyor" style="strokeColor=inherit;fillColor=inherit;gradientColor=inherit;fontColor=inherit;html=1;shadow=0;dashed=0;perimeter=none;whiteSpace=wrap;resizeWidth=1;align=left;spacing=10;fontSize=15;" parent="fJgu6aHgxFHwW13sNsPK-11" vertex="1">
          <mxGeometry width="200" height="50" relative="1" as="geometry">
            <mxPoint y="140" as="offset" />
          </mxGeometry>
        </mxCell>
        <mxCell id="fJgu6aHgxFHwW13sNsPK-23" value="" style="html=1;shadow=0;dashed=0;shape=mxgraph.bootstrap.rrect;rSize=5;strokeColor=#DFDFDF;html=1;whiteSpace=wrap;fillColor=#FFFFFF;fontColor=#000000;fontSize=15;" parent="1" vertex="1">
          <mxGeometry x="550" y="1250" width="200" height="100" as="geometry" />
        </mxCell>
        <mxCell id="fJgu6aHgxFHwW13sNsPK-24" value="Storage" style="html=1;shadow=0;dashed=0;shape=mxgraph.bootstrap.topButton;rSize=5;strokeColor=none;fillColor=#0085FC;fontColor=#ffffff;perimeter=none;whiteSpace=wrap;resizeWidth=1;align=left;spacing=10;fontSize=15;" parent="fJgu6aHgxFHwW13sNsPK-23" vertex="1">
          <mxGeometry width="200" height="30" relative="1" as="geometry" />
        </mxCell>
        <mxCell id="fJgu6aHgxFHwW13sNsPK-25" value="Redis ile tekrar eden data isteklerinin cacheden getirilmesi" style="strokeColor=inherit;fillColor=inherit;gradientColor=inherit;fontColor=inherit;html=1;shadow=0;dashed=0;perimeter=none;whiteSpace=wrap;resizeWidth=1;align=left;spacing=10;fontSize=15;" parent="fJgu6aHgxFHwW13sNsPK-23" vertex="1">
          <mxGeometry width="200" height="90" relative="1" as="geometry">
            <mxPoint y="30" as="offset" />
          </mxGeometry>
        </mxCell>
        <mxCell id="fJgu6aHgxFHwW13sNsPK-26" value="Model datası, şifrelenmiş halde, object storageda tutuluyor." style="strokeColor=inherit;fillColor=inherit;gradientColor=inherit;fontColor=inherit;html=1;shadow=0;dashed=0;perimeter=none;whiteSpace=wrap;resizeWidth=1;align=left;spacing=10;fontSize=15;" parent="fJgu6aHgxFHwW13sNsPK-23" vertex="1">
          <mxGeometry width="200" height="90" relative="1" as="geometry">
            <mxPoint y="110" as="offset" />
          </mxGeometry>
        </mxCell>
        <mxCell id="fJgu6aHgxFHwW13sNsPK-27" value="PostgreSQL ile no sql yapı ile json data saklanabiliyor." style="strokeColor=inherit;fillColor=inherit;gradientColor=inherit;fontColor=inherit;html=1;shadow=0;dashed=0;perimeter=none;whiteSpace=wrap;resizeWidth=1;align=left;spacing=10;fontSize=15;" parent="fJgu6aHgxFHwW13sNsPK-23" vertex="1">
          <mxGeometry width="200" height="80" relative="1" as="geometry">
            <mxPoint y="200" as="offset" />
          </mxGeometry>
        </mxCell>
        <mxCell id="zuOpw0ZFS3uDNEdH8G6p-6" value="Eğitilmiş model dosyaları object storageda tutuluyor." style="strokeColor=none;fillColor=inherit;gradientColor=inherit;fontColor=inherit;html=1;shadow=0;dashed=0;perimeter=none;whiteSpace=wrap;resizeWidth=1;align=left;spacing=10;fontSize=15;" vertex="1" parent="1">
          <mxGeometry x="550" y="1520" width="200" height="70" as="geometry" />
        </mxCell>
        <mxCell id="zuOpw0ZFS3uDNEdH8G6p-8" value="" style="html=1;shadow=0;dashed=0;shape=mxgraph.bootstrap.rrect;rSize=5;strokeColor=#DFDFDF;html=1;whiteSpace=wrap;fillColor=#FFFFFF;fontColor=#000000;fontSize=15;" vertex="1" parent="1">
          <mxGeometry x="1120" y="1270" width="200" height="100" as="geometry" />
        </mxCell>
        <mxCell id="zuOpw0ZFS3uDNEdH8G6p-9" value="Monitoring" style="html=1;shadow=0;dashed=0;shape=mxgraph.bootstrap.topButton;rSize=5;strokeColor=none;fillColor=#0085FC;fontColor=#ffffff;perimeter=none;whiteSpace=wrap;resizeWidth=1;align=left;spacing=10;fontSize=15;" vertex="1" parent="zuOpw0ZFS3uDNEdH8G6p-8">
          <mxGeometry width="200" height="30" relative="1" as="geometry" />
        </mxCell>
        <mxCell id="zuOpw0ZFS3uDNEdH8G6p-10" value="Grafana altyapısı kullanılıyor" style="strokeColor=inherit;fillColor=inherit;gradientColor=inherit;fontColor=inherit;html=1;shadow=0;dashed=0;perimeter=none;whiteSpace=wrap;resizeWidth=1;align=left;spacing=10;fontSize=15;" vertex="1" parent="zuOpw0ZFS3uDNEdH8G6p-8">
          <mxGeometry width="200" height="60" relative="1" as="geometry">
            <mxPoint y="30" as="offset" />
          </mxGeometry>
        </mxCell>
        <mxCell id="zuOpw0ZFS3uDNEdH8G6p-11" value="Loki ile detaylı loglama yapısı bulunuyor" style="strokeColor=inherit;fillColor=inherit;gradientColor=inherit;fontColor=inherit;html=1;shadow=0;dashed=0;perimeter=none;whiteSpace=wrap;resizeWidth=1;align=left;spacing=10;fontSize=15;" vertex="1" parent="zuOpw0ZFS3uDNEdH8G6p-8">
          <mxGeometry width="200" height="50" relative="1" as="geometry">
            <mxPoint y="90" as="offset" />
          </mxGeometry>
        </mxCell>
        <mxCell id="zuOpw0ZFS3uDNEdH8G6p-12" value="Prometheus ile servis metrikleri izleniyor." style="strokeColor=inherit;fillColor=inherit;gradientColor=inherit;fontColor=inherit;html=1;shadow=0;dashed=0;perimeter=none;whiteSpace=wrap;resizeWidth=1;align=left;spacing=10;fontSize=15;" vertex="1" parent="zuOpw0ZFS3uDNEdH8G6p-8">
          <mxGeometry width="200" height="50" relative="1" as="geometry">
            <mxPoint y="140" as="offset" />
          </mxGeometry>
        </mxCell>
        <mxCell id="zuOpw0ZFS3uDNEdH8G6p-13" value="" style="html=1;shadow=0;dashed=0;shape=mxgraph.bootstrap.rrect;rSize=5;strokeColor=#DFDFDF;html=1;whiteSpace=wrap;fillColor=#FFFFFF;fontColor=#000000;fontSize=15;" vertex="1" parent="1">
          <mxGeometry x="280" y="1250" width="200" height="130" as="geometry" />
        </mxCell>
        <mxCell id="zuOpw0ZFS3uDNEdH8G6p-14" value="Master" style="html=1;shadow=0;dashed=0;shape=mxgraph.bootstrap.topButton;rSize=5;strokeColor=none;fillColor=#0085FC;fontColor=#ffffff;perimeter=none;whiteSpace=wrap;resizeWidth=1;align=left;spacing=10;fontSize=15;" vertex="1" parent="zuOpw0ZFS3uDNEdH8G6p-13">
          <mxGeometry width="200" height="30" relative="1" as="geometry" />
        </mxCell>
        <mxCell id="zuOpw0ZFS3uDNEdH8G6p-15" value="Backendden gelen istekler, istek tipine göre experiment, data analiz, deployment, run pipeline workerlarını tetikliyor." style="strokeColor=inherit;fillColor=inherit;gradientColor=inherit;fontColor=inherit;html=1;shadow=0;dashed=0;perimeter=none;whiteSpace=wrap;resizeWidth=1;align=left;spacing=10;fontSize=15;" vertex="1" parent="zuOpw0ZFS3uDNEdH8G6p-13">
          <mxGeometry width="200" height="120" relative="1" as="geometry">
            <mxPoint y="30" as="offset" />
          </mxGeometry>
        </mxCell>
        <mxCell id="zuOpw0ZFS3uDNEdH8G6p-16" value="Her bir worker ayrı bir pod ile ayağa kalkıyor var işlemi tamamlıyor" style="strokeColor=inherit;fillColor=inherit;gradientColor=inherit;fontColor=inherit;html=1;shadow=0;dashed=0;perimeter=none;whiteSpace=wrap;resizeWidth=1;align=left;spacing=10;fontSize=15;" vertex="1" parent="zuOpw0ZFS3uDNEdH8G6p-13">
          <mxGeometry width="200" height="70" relative="1" as="geometry">
            <mxPoint y="150" as="offset" />
          </mxGeometry>
        </mxCell>
        <mxCell id="zuOpw0ZFS3uDNEdH8G6p-18" value="" style="html=1;shadow=0;dashed=0;shape=mxgraph.bootstrap.rrect;rSize=5;strokeColor=#DFDFDF;html=1;whiteSpace=wrap;fillColor=#FFFFFF;fontColor=#000000;fontSize=15;" vertex="1" parent="1">
          <mxGeometry x="850" y="1260" width="200" height="100" as="geometry" />
        </mxCell>
        <mxCell id="zuOpw0ZFS3uDNEdH8G6p-19" value="Test" style="html=1;shadow=0;dashed=0;shape=mxgraph.bootstrap.topButton;rSize=5;strokeColor=none;fillColor=#0085FC;fontColor=#ffffff;perimeter=none;whiteSpace=wrap;resizeWidth=1;align=left;spacing=10;fontSize=15;" vertex="1" parent="zuOpw0ZFS3uDNEdH8G6p-18">
          <mxGeometry width="200" height="30" relative="1" as="geometry" />
        </mxCell>
        <mxCell id="zuOpw0ZFS3uDNEdH8G6p-20" value="Airflow ile model eğitim, data analiz, run pipeline süreçleri test ediliyor." style="strokeColor=inherit;fillColor=inherit;gradientColor=inherit;fontColor=inherit;html=1;shadow=0;dashed=0;perimeter=none;whiteSpace=wrap;resizeWidth=1;align=left;spacing=10;fontSize=15;" vertex="1" parent="zuOpw0ZFS3uDNEdH8G6p-18">
          <mxGeometry width="200" height="60" relative="1" as="geometry">
            <mxPoint y="30" as="offset" />
          </mxGeometry>
        </mxCell>
      </root>
    </mxGraphModel>
  </diagram>
</mxfile>
